<mxfile host="app.diagrams.net" modified="2023-08-16T15:16:31.111Z" agent="Mozilla/5.0 (Windows NT 10.0; Win64; x64) AppleWebKit/537.36 (KHTML, like Gecko) Chrome/115.0.0.0 Safari/537.36" etag="bZptunbICZQ80aHehUN2" version="21.6.8" type="device">
  <diagram name="Pagina-1" id="gq_x-cLGkAuFygYm5lSM">
    <mxGraphModel dx="977" dy="606" grid="1" gridSize="10" guides="1" tooltips="1" connect="1" arrows="1" fold="1" page="1" pageScale="1" pageWidth="827" pageHeight="1169" math="0" shadow="0">
      <root>
        <mxCell id="0" />
        <mxCell id="1" parent="0" />
        <mxCell id="bugUC8IAKvwstOiXNRzl-1" value="USER" style="rounded=1;whiteSpace=wrap;html=1;fillColor=#FFFF00;" vertex="1" parent="1">
          <mxGeometry x="80" y="240" width="100" height="50" as="geometry" />
        </mxCell>
        <mxCell id="bugUC8IAKvwstOiXNRzl-2" value="SIGNUP" style="rounded=1;whiteSpace=wrap;html=1;fillColor=#FF9933;" vertex="1" parent="1">
          <mxGeometry x="340" y="240" width="100" height="50" as="geometry" />
        </mxCell>
        <mxCell id="bugUC8IAKvwstOiXNRzl-3" value="LOGIN" style="rounded=1;whiteSpace=wrap;html=1;fillColor=#CCCC00;" vertex="1" parent="1">
          <mxGeometry x="590" y="240" width="100" height="50" as="geometry" />
        </mxCell>
        <mxCell id="bugUC8IAKvwstOiXNRzl-4" value="PRODUCT VIEW" style="rounded=1;whiteSpace=wrap;html=1;fillColor=#60a917;fontColor=#ffffff;strokeColor=#2D7600;" vertex="1" parent="1">
          <mxGeometry x="10" y="370" width="100" height="50" as="geometry" />
        </mxCell>
        <mxCell id="bugUC8IAKvwstOiXNRzl-5" value="SEARCH" style="rounded=1;whiteSpace=wrap;html=1;fillColor=#d80073;fontColor=#ffffff;strokeColor=#A50040;" vertex="1" parent="1">
          <mxGeometry x="150" y="370" width="100" height="50" as="geometry" />
        </mxCell>
        <mxCell id="bugUC8IAKvwstOiXNRzl-6" value="" style="endArrow=none;html=1;rounded=0;" edge="1" parent="1">
          <mxGeometry width="50" height="50" relative="1" as="geometry">
            <mxPoint x="130" y="340" as="sourcePoint" />
            <mxPoint x="130" y="290" as="targetPoint" />
          </mxGeometry>
        </mxCell>
        <mxCell id="bugUC8IAKvwstOiXNRzl-7" value="" style="endArrow=none;html=1;rounded=0;" edge="1" parent="1">
          <mxGeometry width="50" height="50" relative="1" as="geometry">
            <mxPoint x="50" y="340" as="sourcePoint" />
            <mxPoint x="210" y="340" as="targetPoint" />
            <Array as="points">
              <mxPoint x="130" y="340" />
            </Array>
          </mxGeometry>
        </mxCell>
        <mxCell id="bugUC8IAKvwstOiXNRzl-8" value="" style="endArrow=classic;html=1;rounded=0;" edge="1" parent="1">
          <mxGeometry width="50" height="50" relative="1" as="geometry">
            <mxPoint x="50" y="340" as="sourcePoint" />
            <mxPoint x="50" y="370" as="targetPoint" />
            <Array as="points" />
          </mxGeometry>
        </mxCell>
        <mxCell id="bugUC8IAKvwstOiXNRzl-9" value="" style="endArrow=classic;html=1;rounded=0;" edge="1" parent="1">
          <mxGeometry width="50" height="50" relative="1" as="geometry">
            <mxPoint x="210" y="340" as="sourcePoint" />
            <mxPoint x="210" y="370" as="targetPoint" />
            <Array as="points" />
          </mxGeometry>
        </mxCell>
        <mxCell id="bugUC8IAKvwstOiXNRzl-10" value="" style="endArrow=classic;html=1;rounded=0;entryX=0;entryY=0.5;entryDx=0;entryDy=0;" edge="1" parent="1" target="bugUC8IAKvwstOiXNRzl-2">
          <mxGeometry width="50" height="50" relative="1" as="geometry">
            <mxPoint x="180" y="270" as="sourcePoint" />
            <mxPoint x="230" y="220" as="targetPoint" />
            <Array as="points" />
          </mxGeometry>
        </mxCell>
        <mxCell id="bugUC8IAKvwstOiXNRzl-11" value="" style="endArrow=classic;html=1;rounded=0;entryX=0;entryY=0.5;entryDx=0;entryDy=0;" edge="1" parent="1" target="bugUC8IAKvwstOiXNRzl-3">
          <mxGeometry width="50" height="50" relative="1" as="geometry">
            <mxPoint x="440" y="270" as="sourcePoint" />
            <mxPoint x="490" y="220" as="targetPoint" />
            <Array as="points" />
          </mxGeometry>
        </mxCell>
      </root>
    </mxGraphModel>
  </diagram>
</mxfile>
